<svg width="100" height="100" viewBox="0 0 100 100" fill="none" xmlns="http://www.w3.org/2000/svg">
<path d="M38.355 71.0195L22.9556 55.625H90.625C92.1168 55.625 93.5476 55.0324 94.6024 53.9775C95.6573 52.9226 96.25 51.4919 96.25 50C96.25 48.5082 95.6573 47.0775 94.6024 46.0226C93.5476 44.9677 92.1168 44.375 90.625 44.375H22.9556L38.355 28.9806L38.3552 28.9803C38.8779 28.4576 39.2926 27.8371 39.5754 27.1541C39.8583 26.4712 40.0039 25.7392 40.0039 25C40.0039 24.2608 39.8583 23.5289 39.5754 22.8459C39.2926 22.163 38.8779 21.5425 38.3552 21.0198C37.8325 20.4971 37.212 20.0825 36.5291 19.7996C35.8461 19.5167 35.1142 19.3711 34.375 19.3711C33.6358 19.3711 32.9038 19.5167 32.2209 19.7996C31.5379 20.0825 30.9174 20.4971 30.3947 21.0198L5.39694 46.0175C5.39659 46.0179 5.39624 46.0182 5.39588 46.0186C4.87254 46.5409 4.4573 47.1612 4.17392 47.8442C3.89035 48.5275 3.74438 49.2602 3.74438 50C3.74438 50.7399 3.89035 51.4725 4.17392 52.1559C4.45709 52.8383 4.87192 53.4583 5.3947 53.9803C5.39545 53.9811 5.39619 53.9818 5.39694 53.9825L30.3947 78.9803C30.9174 79.503 31.5379 79.9176 32.2209 80.2005C32.9038 80.4834 33.6358 80.629 34.375 80.629C35.1142 80.629 35.8461 80.4834 36.5291 80.2005C37.212 79.9176 37.8325 79.503 38.3552 78.9803C38.8779 78.4576 39.2926 77.8371 39.5754 77.1541C39.8583 76.4712 40.0039 75.7392 40.0039 75C40.0039 74.2608 39.8583 73.5289 39.5754 72.8459C39.2926 72.163 38.8779 71.5425 38.3552 71.0198L38.355 71.0195Z" fill="#EF8E86" stroke="#EF8E86" stroke-width="5"/>
</svg>
