<svg width="60" height="60" viewBox="0 0 60 60" fill="none" xmlns="http://www.w3.org/2000/svg">
<circle cx="30" cy="30" r="30" fill="white"/>
<path d="M45.9217 16.5002C46.0012 16.3014 46.0207 16.0837 45.9777 15.874C45.9347 15.6642 45.831 15.4717 45.6797 15.3203C45.5283 15.169 45.3358 15.0653 45.1261 15.0223C44.9163 14.9793 44.6986 14.9988 44.4999 15.0783L12.6794 27.8072H12.6772L11.6885 28.201C11.5012 28.2757 11.3383 28.4007 11.2176 28.5622C11.0969 28.7237 11.0232 28.9154 11.0046 29.1162C10.9861 29.3169 11.0234 29.5189 11.1124 29.6998C11.2014 29.8807 11.3387 30.0335 11.5091 30.1413L12.406 30.71L12.4082 30.7144L23.3343 37.6662L30.286 48.5926L30.2903 48.597L30.8591 49.4938C30.9672 49.6636 31.12 49.8002 31.3008 49.8887C31.4816 49.9771 31.6832 50.014 31.8836 49.9952C32.0839 49.9765 32.2753 49.9028 32.4364 49.7823C32.5976 49.6618 32.7224 49.4991 32.7971 49.3123L45.9217 16.5002ZM41.9121 20.6345L25.5196 37.0274L25.0493 36.2881C24.9631 36.1524 24.8481 36.0374 24.7124 35.9512L23.9731 35.4809L40.3656 19.088L42.9424 18.0577L41.9143 20.6345H41.9121Z" fill="black"/>
</svg>
