<svg width="100" height="63" viewBox="0 0 100 63" fill="none" xmlns="http://www.w3.org/2000/svg">
<rect x="28" y="5" width="66" height="52" rx="15" fill="#A9A9A9"/>
<ellipse cx="30.5" cy="31" rx="25.5" ry="26" fill="white"/>
<path d="M68.75 6.3C75.3804 6.3 81.7393 8.95499 86.4277 13.6809C91.1161 18.4068 93.75 24.8165 93.75 31.5C93.75 38.1835 91.1161 44.5932 86.4277 49.3191C81.7393 54.045 75.3804 56.7 68.75 56.7H50C53.884 53.7686 57.0362 49.9645 59.2061 45.5899C61.3761 41.2153 62.5039 36.3909 62.5 31.5C62.5039 26.6091 61.3761 21.7847 59.2061 17.4101C57.0362 13.0355 53.884 9.23141 50 6.3H68.75ZM31.25 56.7C24.6196 56.7 18.2607 54.045 13.5723 49.3191C8.88392 44.5932 6.25 38.1835 6.25 31.5C6.25 24.8165 8.88392 18.4068 13.5723 13.6809C18.2607 8.95499 24.6196 6.3 31.25 6.3C37.8804 6.3 44.2393 8.95499 48.9277 13.6809C53.6161 18.4068 56.25 24.8165 56.25 31.5C56.25 38.1835 53.6161 44.5932 48.9277 49.3191C44.2393 54.045 37.8804 56.7 31.25 56.7ZM0 31.5C0 39.8543 3.2924 47.8665 9.15291 53.7739C15.0134 59.6813 22.962 63 31.25 63H68.75C77.038 63 84.9866 59.6813 90.8471 53.7739C96.7076 47.8665 100 39.8543 100 31.5C100 23.1457 96.7076 15.1335 90.8471 9.22614C84.9866 3.31874 77.038 0 68.75 0H31.25C22.962 0 15.0134 3.31874 9.15291 9.22614C3.2924 15.1335 0 23.1457 0 31.5Z" fill="black"/>
</svg>
