<svg width="100" height="63" viewBox="0 0 100 63" fill="none" xmlns="http://www.w3.org/2000/svg">
<rect width="66.0194" height="52.1719" rx="15" transform="matrix(-1 0 0 1 71.8446 4.92188)" fill="#36D233"/>
<ellipse rx="25.2427" ry="26.0859" transform="matrix(-1 0 0 1 68.932 31.0078)" fill="white"/>
<path d="M31.25 6.3C24.6196 6.3 18.2607 8.95499 13.5723 13.6809C8.88392 18.4068 6.25 24.8165 6.25 31.5C6.25 38.1835 8.88392 44.5932 13.5723 49.3191C18.2607 54.045 24.6196 56.7 31.25 56.7H50C46.116 53.7686 42.9638 49.9645 40.7939 45.5899C38.6239 41.2153 37.4961 36.3909 37.5 31.5C37.4961 26.6091 38.6239 21.7847 40.7939 17.4101C42.9638 13.0355 46.116 9.23141 50 6.3H31.25ZM68.75 56.7C75.3804 56.7 81.7393 54.045 86.4277 49.3191C91.1161 44.5932 93.75 38.1835 93.75 31.5C93.75 24.8165 91.1161 18.4068 86.4277 13.6809C81.7393 8.95499 75.3804 6.3 68.75 6.3C62.1196 6.3 55.7607 8.95499 51.0723 13.6809C46.3839 18.4068 43.75 24.8165 43.75 31.5C43.75 38.1835 46.3839 44.5932 51.0723 49.3191C55.7607 54.045 62.1196 56.7 68.75 56.7ZM100 31.5C100 39.8543 96.7076 47.8665 90.8471 53.7739C84.9866 59.6813 77.038 63 68.75 63H31.25C22.962 63 15.0134 59.6813 9.15292 53.7739C3.2924 47.8665 0 39.8543 0 31.5C0 23.1457 3.2924 15.1335 9.15292 9.22614C15.0134 3.31874 22.962 0 31.25 0H68.75C77.038 0 84.9866 3.31874 90.8471 9.22614C96.7076 15.1335 100 23.1457 100 31.5Z" fill="black"/>
</svg>
