<svg width="100" height="100" viewBox="0 0 100 100" fill="none" xmlns="http://www.w3.org/2000/svg">
<path fill-rule="evenodd" clip-rule="evenodd" d="M68.75 46.875C68.75 46.0462 69.0792 45.2513 69.6653 44.6653C70.2513 44.0792 71.0462 43.75 71.875 43.75H96.875C97.7038 43.75 98.4987 44.0792 99.0847 44.6653C99.6708 45.2513 100 46.0462 100 46.875C100 47.7038 99.6708 48.4987 99.0847 49.0847C98.4987 49.6708 97.7038 50 96.875 50H71.875C71.0462 50 70.2513 49.6708 69.6653 49.0847C69.0792 48.4987 68.75 47.7038 68.75 46.875Z" fill="black"/>
<path d="M6.25 87.5C6.25 87.5 0 87.5 0 81.25C0 75 6.25 56.25 37.5 56.25C68.75 56.25 75 75 75 81.25C75 87.5 68.75 87.5 68.75 87.5H6.25ZM37.5 50C42.4728 50 47.2419 48.0246 50.7583 44.5083C54.2746 40.9919 56.25 36.2228 56.25 31.25C56.25 26.2772 54.2746 21.5081 50.7583 17.9917C47.2419 14.4754 42.4728 12.5 37.5 12.5C32.5272 12.5 27.7581 14.4754 24.2417 17.9917C20.7254 21.5081 18.75 26.2772 18.75 31.25C18.75 36.2228 20.7254 40.9919 24.2417 44.5083C27.7581 48.0246 32.5272 50 37.5 50V50Z" fill="black"/>
</svg>
