<svg width="50" height="50" viewBox="0 0 50 50" fill="none" xmlns="http://www.w3.org/2000/svg">
<path d="M44.2531 6.00918C44.5634 5.68966 44.9336 5.43583 45.3422 5.26254C45.7508 5.08926 46.1895 5 46.6327 5C47.0759 5 47.5147 5.08926 47.9233 5.26254C48.3319 5.43583 48.7021 5.68966 49.0123 6.00918C50.3124 7.33527 50.3305 9.47813 49.0578 10.8272L22.18 42.9012C21.8748 43.2395 21.5045 43.5113 21.0917 43.7002C20.6788 43.889 20.2322 43.9908 19.779 43.9994C19.3259 44.008 18.8758 43.9232 18.4562 43.7501C18.0367 43.5771 17.6565 43.3194 17.339 42.993L0.984074 26.2631C0.353321 25.6137 0 24.7406 0 23.8311C0 22.9217 0.353321 22.0485 0.984074 21.3992C1.29429 21.0797 1.66454 20.8258 2.07314 20.6526C2.48173 20.4793 2.92047 20.39 3.36367 20.39C3.80686 20.39 4.2456 20.4793 4.6542 20.6526C5.0628 20.8258 5.43305 21.0797 5.74326 21.3992L19.6163 35.5916L44.1622 6.11013C44.1905 6.07467 44.2209 6.04096 44.2531 6.00918Z" fill="#36D233"/>
</svg>
