<svg width="100" height="100" viewBox="0 0 100 100" fill="none" xmlns="http://www.w3.org/2000/svg">
<path d="M6.25 87.5C6.25 87.5 0 87.5 0 81.25C0 75 6.25 56.25 37.5 56.25C68.75 56.25 75 75 75 81.25C75 87.5 68.75 87.5 68.75 87.5H6.25ZM37.5 50C42.4728 50 47.2419 48.0246 50.7583 44.5083C54.2746 40.9919 56.25 36.2228 56.25 31.25C56.25 26.2772 54.2746 21.5081 50.7583 17.9917C47.2419 14.4754 42.4728 12.5 37.5 12.5C32.5272 12.5 27.7581 14.4754 24.2417 17.9917C20.7254 21.5081 18.75 26.2772 18.75 31.25C18.75 36.2228 20.7254 40.9919 24.2417 44.5083C27.7581 48.0246 32.5272 50 37.5 50V50Z" fill="black"/>
<path fill-rule="evenodd" clip-rule="evenodd" d="M84.375 31.25C85.2038 31.25 85.9987 31.5792 86.5847 32.1653C87.1708 32.7513 87.5 33.5462 87.5 34.375V43.75H96.875C97.7038 43.75 98.4987 44.0792 99.0847 44.6653C99.6708 45.2513 100 46.0462 100 46.875C100 47.7038 99.6708 48.4987 99.0847 49.0847C98.4987 49.6708 97.7038 50 96.875 50H87.5V59.375C87.5 60.2038 87.1708 60.9987 86.5847 61.5847C85.9987 62.1708 85.2038 62.5 84.375 62.5C83.5462 62.5 82.7513 62.1708 82.1653 61.5847C81.5792 60.9987 81.25 60.2038 81.25 59.375V50H71.875C71.0462 50 70.2513 49.6708 69.6653 49.0847C69.0792 48.4987 68.75 47.7038 68.75 46.875C68.75 46.0462 69.0792 45.2513 69.6653 44.6653C70.2513 44.0792 71.0462 43.75 71.875 43.75H81.25V34.375C81.25 33.5462 81.5792 32.7513 82.1653 32.1653C82.7513 31.5792 83.5462 31.25 84.375 31.25Z" fill="black"/>
</svg>
