<svg width="50" height="50" viewBox="0 0 50 50" fill="none" xmlns="http://www.w3.org/2000/svg">
<path d="M25 0C25.8288 0 26.6237 0.329241 27.2097 0.915292C27.7958 1.50134 28.125 2.2962 28.125 3.125V21.875H46.875C47.7038 21.875 48.4987 22.2042 49.0847 22.7903C49.6708 23.3763 50 24.1712 50 25C50 25.8288 49.6708 26.6237 49.0847 27.2097C48.4987 27.7958 47.7038 28.125 46.875 28.125H28.125V46.875C28.125 47.7038 27.7958 48.4987 27.2097 49.0847C26.6237 49.6708 25.8288 50 25 50C24.1712 50 23.3763 49.6708 22.7903 49.0847C22.2042 48.4987 21.875 47.7038 21.875 46.875V28.125H3.125C2.2962 28.125 1.50134 27.7958 0.915292 27.2097C0.329241 26.6237 0 25.8288 0 25C0 24.1712 0.329241 23.3763 0.915292 22.7903C1.50134 22.2042 2.2962 21.875 3.125 21.875H21.875V3.125C21.875 2.2962 22.2042 1.50134 22.7903 0.915292C23.3763 0.329241 24.1712 0 25 0Z" fill="black"/>
</svg>
