<svg width="100" height="100" viewBox="0 0 100 100" fill="none" xmlns="http://www.w3.org/2000/svg">
<path d="M84.5837 15.4199C85.0321 15.8681 85.3879 16.4001 85.6309 16.9857C85.8746 17.5729 86 18.2023 86 18.838C86 19.4737 85.8746 20.1032 85.6309 20.6904C85.3876 21.2767 85.0312 21.8094 84.5819 22.258L84.5837 15.4199ZM84.5837 15.4199C84.1348 14.9698 83.6014 14.6127 83.0143 14.3691C82.4271 14.1254 81.7977 14 81.162 14C80.5263 14 79.8968 14.1254 79.3096 14.3691C78.7225 14.6127 78.1892 14.9698 77.7402 15.4199L15.4166 77.7435C14.5096 78.6505 14 79.8807 14 81.1634C14 82.4462 14.5096 83.6764 15.4166 84.5834C16.3236 85.4904 17.5538 86 18.8366 86C20.1193 86 21.3495 85.4904 22.2565 84.5834L84.5801 22.2598L84.5837 15.4199Z" fill="black" stroke="black" stroke-width="4"/>
<path d="M15.4199 15.4163C15.8681 14.9679 16.4001 14.6121 16.9857 14.3691C17.5729 14.1254 18.2023 14 18.838 14C19.4737 14 20.1032 14.1254 20.6904 14.3691C21.2767 14.6124 21.8094 14.9688 22.258 15.4181L15.4199 15.4163ZM15.4199 15.4163C14.9698 15.8652 14.6127 16.3986 14.3691 16.9857C14.1254 17.5729 14 18.2023 14 18.838C14 19.4737 14.1254 20.1032 14.3691 20.6904C14.6127 21.2775 14.9698 21.8108 15.4199 22.2598L77.7435 84.5834C78.6505 85.4904 79.8807 86 81.1634 86C82.4462 86 83.6764 85.4904 84.5834 84.5834C85.4904 83.6764 86 82.4462 86 81.1634C86 79.8807 85.4904 78.6505 84.5834 77.7435L22.2598 15.4199L15.4199 15.4163Z" fill="black" stroke="black" stroke-width="4"/>
</svg>
