<svg width="100" height="100" viewBox="0 0 100 100" fill="none" xmlns="http://www.w3.org/2000/svg">
<path d="M76.2829 7.7777C75.7848 7.27974 75.1093 7 74.405 7C73.7007 7 73.0252 7.27974 72.5271 7.7777L63.7778 16.5273L83.4704 36.2205L92.2197 27.4762C92.467 27.2295 92.6633 26.9364 92.7972 26.6136C92.9311 26.2909 93 25.945 93 25.5956C93 25.2462 92.9311 24.9003 92.7972 24.5776C92.6633 24.2549 92.467 23.9617 92.2197 23.715L76.2829 7.7777V7.7777ZM79.7146 39.9764L60.022 20.2832L25.4923 54.814H26.5919C27.2964 54.814 27.972 55.0938 28.4701 55.592C28.9682 56.0901 29.248 56.7657 29.248 57.4702V60.1264H31.9042C32.6086 60.1264 33.2842 60.4063 33.7823 60.9044C34.2805 61.4025 34.5603 62.0782 34.5603 62.7826V65.4389H37.2164C37.9209 65.4389 38.5965 65.7187 39.0946 66.2168C39.5927 66.715 39.8726 67.3906 39.8726 68.0951V70.7513H42.5287C43.2332 70.7513 43.9088 71.0311 44.4069 71.5293C44.905 72.0274 45.1848 72.703 45.1848 73.4075V74.5072L79.7146 39.9764V39.9764ZM40.0426 79.6496C39.9308 79.3524 39.8732 79.0375 39.8726 78.7199V76.0637H37.2164C36.512 76.0637 35.8364 75.7839 35.3383 75.2857C34.8402 74.7876 34.5603 74.112 34.5603 73.4075V70.7513H31.9042C31.1997 70.7513 30.5241 70.4714 30.026 69.9733C29.5279 69.4752 29.248 68.7995 29.248 68.0951V65.4389H26.5919C25.8875 65.4389 25.2119 65.159 24.7137 64.6609C24.2156 64.1627 23.9358 63.4871 23.9358 62.7826V60.1264H21.2796C20.9621 60.1259 20.6472 60.0683 20.35 59.9564L19.3991 60.902C19.146 61.157 18.9472 61.4606 18.8147 61.7945L8.19021 88.3567C7.997 88.8394 7.9497 89.3682 8.05418 89.8775C8.15866 90.3869 8.41032 90.8544 8.77796 91.222C9.14561 91.5897 9.61307 91.8413 10.1224 91.9458C10.6317 92.0503 11.1605 92.003 11.6432 91.8098L38.2045 81.1849C38.5385 81.0525 38.8421 80.8537 39.097 80.6005L40.0426 79.6549V79.6496Z" fill="black"/>
</svg>
