<svg width="100" height="100" viewBox="0 0 100 100" fill="none" xmlns="http://www.w3.org/2000/svg">
<path d="M40.625 90.625V68.7188C40.625 67.1875 42.1875 65.625 43.75 65.625H56.25C57.8125 65.625 59.375 67.1875 59.375 68.75V90.625C59.375 91.4538 59.7042 92.2487 60.2903 92.8347C60.8763 93.4208 61.6712 93.75 62.5 93.75H87.5C88.3288 93.75 89.1237 93.4208 89.7097 92.8347C90.2958 92.2487 90.625 91.4538 90.625 90.625V46.875C90.6257 46.4643 90.5455 46.0576 90.389 45.6779C90.2324 45.2983 90.0025 44.9532 89.7125 44.6625L81.25 36.2063V15.625C81.25 14.7962 80.9208 14.0013 80.3347 13.4153C79.7487 12.8292 78.9538 12.5 78.125 12.5H71.875C71.0462 12.5 70.2513 12.8292 69.6653 13.4153C69.0792 14.0013 68.75 14.7962 68.75 15.625V23.7063L52.2125 7.1625C51.9222 6.87148 51.5774 6.64059 51.1977 6.48305C50.8181 6.32551 50.4111 6.24442 50 6.24442C49.589 6.24442 49.182 6.32551 48.8023 6.48305C48.4226 6.64059 48.0778 6.87148 47.7875 7.1625L10.2875 44.6625C9.99749 44.9532 9.76763 45.2983 9.61106 45.6779C9.45448 46.0576 9.37427 46.4643 9.375 46.875V90.625C9.375 91.4538 9.70425 92.2487 10.2903 92.8347C10.8763 93.4208 11.6712 93.75 12.5 93.75H37.5C38.3288 93.75 39.1237 93.4208 39.7097 92.8347C40.2958 92.2487 40.625 91.4538 40.625 90.625Z" fill="#EF8E86"/>
</svg>
