<svg width="19" height="20" viewBox="0 0 19 20" fill="none" xmlns="http://www.w3.org/2000/svg">
<path fill-rule="evenodd" clip-rule="evenodd" d="M19 9.2864C19.0002 9.19254 18.9814 9.09957 18.9448 9.0128C18.9082 8.92603 18.8544 8.84717 18.7866 8.78072L16.8077 6.84798V2.144C16.8077 1.95457 16.7307 1.7729 16.5937 1.63895C16.4566 1.50501 16.2707 1.42976 16.0769 1.42976H14.6154C14.4795 1.42976 14.3475 1.46675 14.2335 1.53503C14.1849 1.56413 14.1396 1.59892 14.0986 1.63895C13.9616 1.7729 13.8846 1.95457 13.8846 2.144V3.99102L10.0174 0.209835C9.9495 0.14332 9.86886 0.0905481 9.78008 0.0545412C9.6913 0.0185342 9.59612 0 9.5 0C9.40388 0 9.3087 0.0185342 9.21992 0.0545412C9.13114 0.0905481 9.0505 0.14332 8.98262 0.209835L0.213387 8.78072C0.145569 8.84717 0.0918162 8.92603 0.0552022 9.0128C0.0185882 9.09957 -0.000169192 9.19254 1.14985e-06 9.2864V19.2858C1.14985e-06 19.4752 0.0769938 19.6569 0.21404 19.7908C0.351085 19.9247 0.536959 20 0.730771 20H6.57692C6.77073 20 6.95661 19.9247 7.09365 19.7908C7.2307 19.6569 7.30769 19.4752 7.30769 19.2858V14.2789C7.30769 13.929 7.67308 13.5718 8.03846 13.5718H10.9615C11.3269 13.5718 11.6923 13.929 11.6923 14.2861V19.2858C11.6923 19.4752 11.7693 19.6569 11.9063 19.7908C12.0434 19.9247 12.2293 20 12.4231 20H18.2692C18.463 20 18.6489 19.9247 18.786 19.7908C18.923 19.6569 19 19.4752 19 19.2858V9.2864ZM15.8846 8.74206V8.74366L9.49983 2.50094L2 9.83113V18H5.30769V14.2789C5.30769 13.4269 5.7281 12.7619 6.1429 12.3592C6.56303 11.9513 7.2222 11.5718 8.03846 11.5718H10.9615C11.7787 11.5718 12.4397 11.9521 12.8619 12.3647C13.2812 12.7746 13.6923 13.4407 13.6923 14.2861V18H17V9.83142L15.8846 8.74206ZM2 9.28274C2 9.28396 2.00001 9.28518 2.00001 9.2864L2 9.28274Z" fill="#EF8E86"/>
</svg>
