<svg width="210" height="73" viewBox="0 0 210 73" fill="none" xmlns="http://www.w3.org/2000/svg">
<rect width="210" height="73" rx="36.5" fill="#EE8E85"/>
<path d="M89.32 47.88V51.52H55.2V47.88H70.16V41.44H57.48V29.12H83.16V23.76H57.48V20.24H87.08V32.52H61.44V37.92H87.6V41.44H74.2V47.88H89.32ZM116.157 23.92H90.5566V20.2H120.317V43.88H116.157V23.92ZM88.4766 47.8H122.597V51.52H88.4766V47.8ZM149.673 19H153.633V44.36H149.673V19ZM132.913 39.2C130.726 39.2 128.806 38.7733 127.153 37.92C125.526 37.0667 124.273 35.8933 123.393 34.4C122.513 32.88 122.073 31.1733 122.073 29.28C122.073 27.3867 122.513 25.6933 123.393 24.2C124.273 22.68 125.526 21.4933 127.153 20.64C128.806 19.7867 130.726 19.36 132.913 19.36C135.1 19.36 137.006 19.7867 138.633 20.64C140.26 21.4933 141.513 22.6667 142.393 24.16C143.273 25.6533 143.713 27.36 143.713 29.28C143.713 31.2 143.273 32.9067 142.393 34.4C141.513 35.8933 140.26 37.0667 138.633 37.92C137.006 38.7733 135.1 39.2 132.913 39.2ZM132.913 35.84C134.966 35.84 136.62 35.2533 137.873 34.08C139.126 32.88 139.753 31.28 139.753 29.28C139.753 27.28 139.113 25.68 137.833 24.48C136.58 23.28 134.94 22.68 132.913 22.68C130.86 22.68 129.193 23.28 127.913 24.48C126.66 25.68 126.033 27.28 126.033 29.28C126.033 31.28 126.66 32.88 127.913 34.08C129.193 35.2533 130.86 35.84 132.913 35.84ZM125.073 41.56H129.113V49.12H154.553V52.72H125.073V41.56Z" fill="white"/>
</svg>
