<svg width="618" height="166" viewBox="0 0 618 166" fill="none" xmlns="http://www.w3.org/2000/svg">
<g filter="url(#filter0_d_8_25)">
<path d="M131.85 31.5V159.6H106.5V103.5H89.55C88.45 120.8 84.45 133.75 77.55 142.35C70.75 150.85 61.65 155.1 50.25 155.1C37.85 155.1 28.1 150.05 21 139.95C14 129.75 10.5 114.45 10.5 94.05C10.5 73.65 14 58.4 21 48.3C28.1 38.1 37.85 33 50.25 33C61.05 33 69.85 36.9 76.65 44.7C83.45 52.4 87.65 64.1 89.25 79.8H106.5V31.5H131.85ZM50.25 131.85C59.95 131.85 64.8 119.25 64.8 94.05C64.8 68.85 59.95 56.25 50.25 56.25C40.45 56.25 35.55 68.85 35.55 94.05C35.55 119.25 40.45 131.85 50.25 131.85ZM256.037 159.6H230.687V31.5H256.037V159.6ZM213.887 57.6H163.487V130.5H190.787C196.887 130.5 202.937 130 208.937 129C215.037 127.9 220.037 126.45 223.937 124.65V147.45C220.137 149.35 215.037 150.85 208.637 151.95C202.337 153.05 196.037 153.6 189.737 153.6H137.837V34.5H213.887V57.6ZM403.365 102.45H378.015V31.5H403.365V102.45ZM363.015 66.15C363.015 73.05 361.265 79.1 357.765 84.3C354.265 89.5 349.365 93.55 343.065 96.45C336.765 99.25 329.515 100.65 321.315 100.65C313.115 100.65 305.865 99.25 299.565 96.45C293.265 93.55 288.365 89.5 284.865 84.3C281.365 79.1 279.615 73.05 279.615 66.15C279.615 59.35 281.365 53.35 284.865 48.15C288.365 42.85 293.265 38.8 299.565 36C305.865 33.1 313.115 31.65 321.315 31.65C329.515 31.65 336.765 33.1 343.065 36C349.365 38.8 354.265 42.85 357.765 48.15C361.265 53.35 363.015 59.35 363.015 66.15ZM304.815 66.15C304.815 70.35 306.315 73.7 309.315 76.2C312.315 78.7 316.315 79.95 321.315 79.95C326.315 79.95 330.315 78.7 333.315 76.2C336.315 73.7 337.815 70.35 337.815 66.15C337.815 61.95 336.315 58.6 333.315 56.1C330.315 53.6 326.315 52.35 321.315 52.35C316.315 52.35 312.315 53.6 309.315 56.1C306.315 58.6 304.815 61.95 304.815 66.15ZM398.115 160.95L376.815 144C372.315 149 367.065 152.85 361.065 155.55C355.165 158.25 348.915 159.6 342.315 159.6L322.815 144.15C318.215 149.15 312.965 152.95 307.065 155.55C301.265 158.25 295.165 159.6 288.765 159.6V136.65C292.765 136.65 296.515 135.35 300.015 132.75C303.615 130.05 306.615 126.4 309.015 121.8C311.415 117.1 312.915 111.95 313.515 106.35L337.965 110.4C337.265 116 335.965 121.2 334.065 126L348.015 135.6C352.815 133.9 356.965 130.4 360.465 125.1C364.065 119.7 366.265 113.45 367.065 106.35L391.515 110.4C390.715 116.1 389.465 121.25 387.765 125.85L412.515 142.8L398.115 160.95ZM528.152 159.6H502.802V31.5H528.152V159.6ZM436.052 130.5H462.902C469.002 130.5 475.052 129.95 481.052 128.85C487.152 127.75 492.152 126.25 496.052 124.35V147.45C492.252 149.35 487.352 150.85 481.352 151.95C475.352 153.05 469.202 153.6 462.902 153.6H409.952V33.75H436.052V130.5ZM556.489 117C556.489 109.6 557.589 103.55 559.789 98.85C562.089 94.15 565.989 89.75 571.489 85.65C576.389 81.85 579.889 78.7 581.989 76.2C584.089 73.6 585.139 70.6 585.139 67.2C585.139 63.4 583.839 60.45 581.239 58.35C578.639 56.15 574.989 55.05 570.289 55.05C565.489 55.05 561.689 56.5 558.889 59.4C556.189 62.2 554.839 65.65 554.839 69.75H528.739C528.739 62.65 530.489 56.25 533.989 50.55C537.589 44.75 542.489 40.2 548.689 36.9C554.989 33.6 562.139 31.95 570.139 31.95C578.639 31.95 585.939 33.45 592.039 36.45C598.139 39.45 602.789 43.65 605.989 49.05C609.189 54.35 610.789 60.4 610.789 67.2C610.789 77.7 605.739 86.85 595.639 94.65C590.139 98.95 586.339 102.7 584.239 105.9C582.239 109.1 581.239 112.8 581.239 117H556.489ZM569.689 159.6C565.089 159.6 561.289 158.1 558.289 155.1C555.289 152.2 553.789 148.45 553.789 143.85C553.789 139.25 555.289 135.45 558.289 132.45C561.289 129.45 565.089 127.95 569.689 127.95C574.289 127.95 578.089 129.45 581.089 132.45C584.089 135.45 585.589 139.25 585.589 143.85C585.589 148.45 584.089 152.2 581.089 155.1C578.089 158.1 574.289 159.6 569.689 159.6Z" fill="#EE8E85"/>
</g>
<path d="M30.31 13.334H23.442V11.821L29.902 2.794H32.01V11.821H34.237V13.334H32.01V16.411H30.31V13.334ZM30.31 11.821V4.749L25.278 11.821H30.31ZM35.4043 15.255L40.2323 10.41C41.0936 9.53733 41.7113 8.80633 42.0853 8.217C42.4593 7.61633 42.6463 7.07233 42.6463 6.585C42.6463 5.79167 42.397 5.174 41.8983 4.732C41.3996 4.27867 40.7196 4.052 39.8583 4.052C39.269 4.052 38.759 4.188 38.3283 4.46C37.909 4.72067 37.586 5.072 37.3593 5.514C37.144 5.956 37.0363 6.43767 37.0363 6.959H35.2513C35.2513 6.13167 35.4383 5.378 35.8123 4.698C36.1976 4.018 36.7416 3.47967 37.4443 3.083C38.147 2.675 38.9573 2.471 39.8753 2.471C40.782 2.471 41.5753 2.641 42.2553 2.981C42.9466 3.321 43.4793 3.80267 43.8533 4.426C44.2273 5.04933 44.4143 5.76333 44.4143 6.568C44.4143 7.282 44.199 7.99033 43.7683 8.693C43.3376 9.39567 42.5953 10.2853 41.5413 11.362L37.9713 14.864H44.8733V16.411H35.4043V15.255ZM60.3305 2.25V16.768H58.6475V9.084H54.9075V7.503H58.6475V2.25H60.3305ZM52.7315 2.675C52.7315 4.60167 52.5899 6.40367 52.3065 8.081L56.8455 15.017L55.4345 15.935L51.8135 10.223C51.3149 11.957 50.6349 13.317 49.7735 14.303C48.9122 15.2777 47.9149 15.8103 46.7815 15.901V14.184C47.6882 14.0367 48.4532 13.436 49.0765 12.382C49.7112 11.328 50.1872 9.95667 50.5045 8.268C50.8332 6.568 51.0032 4.681 51.0145 2.607L52.7315 2.675ZM70.2571 7.486C68.3531 7.486 66.8117 7.27633 65.6331 6.857C64.4657 6.42633 63.8821 5.752 63.8821 4.834C63.8821 3.92733 64.4657 3.26433 65.6331 2.845C66.8117 2.41433 68.3531 2.199 70.2571 2.199C72.1611 2.199 73.6967 2.41433 74.8641 2.845C76.0427 3.26433 76.6321 3.92733 76.6321 4.834C76.6321 5.752 76.0427 6.42633 74.8641 6.857C73.6967 7.27633 72.1611 7.486 70.2571 7.486ZM70.2571 3.474C68.8971 3.474 67.7807 3.58733 66.9081 3.814C66.0467 4.04067 65.6161 4.38067 65.6161 4.834C65.6161 5.28733 66.0467 5.62733 66.9081 5.854C67.7694 6.08067 68.8857 6.194 70.2571 6.194C71.6284 6.194 72.7447 6.08067 73.6061 5.854C74.4674 5.62733 74.8981 5.28733 74.8981 4.834C74.8981 4.38067 74.4617 4.04067 73.5891 3.814C72.7277 3.58733 71.6171 3.474 70.2571 3.474ZM71.0901 9.543V10.852H76.5131V14.32H65.6671V15.34H76.7681V16.598H64.0181V13.13H74.8641V12.11H63.9841V10.852H69.4241V9.543H63.0151V8.234H77.5161V9.543H71.0901ZM99.3133 9.747H97.2733V16.768H95.5903V2.25H97.2733V8.132H99.3133V9.747ZM90.1163 4.324C90.1049 6.00133 89.9576 7.537 89.6743 8.931L94.3323 14.779L93.0063 15.782L89.1813 10.835C88.6826 12.3423 88.0139 13.5323 87.1753 14.405C86.3479 15.2777 85.3903 15.7763 84.3023 15.901V14.235C85.1409 14.0763 85.8663 13.555 86.4783 12.671C87.0903 11.787 87.5606 10.6253 87.8893 9.186C88.2179 7.74667 88.3936 6.126 88.4163 4.324H84.6423V2.777H93.7713V4.324H90.1163ZM112.351 2.25H114.034V16.768H112.351V2.25ZM101.318 8.455H107.812V4.324H101.284V2.777H109.495V10.002H103.001V14.354H107.251C107.942 14.354 108.628 14.2917 109.308 14.167C109.999 14.0423 110.566 13.8723 111.008 13.657V15.204C110.577 15.4193 110.016 15.5893 109.325 15.714C108.633 15.8387 107.925 15.901 107.2 15.901H101.318V8.455ZM126.447 7.673C125.937 8.40967 125.28 9.016 124.475 9.492C123.682 9.968 122.792 10.2627 121.806 10.376V8.914C122.883 8.75533 123.767 8.32467 124.458 7.622C125.161 6.908 125.597 6.03533 125.767 5.004H121.959V3.593H125.801V1.995H127.501V3.593H131.292V5.004H127.484C127.416 5.48 127.297 5.939 127.127 6.381L131.547 8.948L130.748 10.223L126.447 7.673ZM136.783 5.463V7.078H134.743V10.648H133.06V2.25H134.743V5.463H136.783ZM129.881 12.79C129.745 13.1527 129.603 13.453 129.456 13.691L135.287 15.391L134.845 16.785L128.504 14.762C127.79 15.3513 126.895 15.799 125.818 16.105C124.741 16.4223 123.602 16.581 122.401 16.581V15.17C123.716 15.17 124.894 14.9603 125.937 14.541C126.991 14.1103 127.705 13.5267 128.079 12.79H122.571V11.447H134.93V12.79H129.881ZM149.821 2.25H151.504V16.768H149.821V2.25ZM138.635 14.269C139.938 14.269 141.066 13.946 142.018 13.3C142.981 12.6427 143.712 11.719 144.211 10.529C144.721 9.32767 144.976 7.92233 144.976 6.313V4.324H138.635V2.777H146.693V6.279C146.693 8.20567 146.364 9.89433 145.707 11.345C145.061 12.7843 144.126 13.9007 142.902 14.694C141.689 15.476 140.267 15.867 138.635 15.867V14.269ZM172.74 2.25V16.768H171.057V9.084H167.317V7.503H171.057V2.25H172.74ZM165.141 2.675C165.141 4.60167 164.999 6.40367 164.716 8.081L169.255 15.017L167.844 15.935L164.223 10.223C163.724 11.957 163.044 13.317 162.183 14.303C161.321 15.2777 160.324 15.8103 159.191 15.901V14.184C160.097 14.0367 160.862 13.436 161.486 12.382C162.12 11.328 162.596 9.95667 162.914 8.268C163.242 6.568 163.412 4.681 163.424 2.607L165.141 2.675ZM188.973 2.25V16.768H187.29V2.25H188.973ZM182.819 2.675H184.485V15.901H176.257V2.675H177.923V7.673H182.819V2.675ZM182.819 14.354V9.22H177.923V14.354H182.819ZM198.832 7.129C197.993 8.44367 196.979 9.48067 195.789 10.24C194.61 10.9993 193.369 11.379 192.066 11.379V9.781C193.086 9.781 194.072 9.44667 195.024 8.778C195.976 8.098 196.786 7.19133 197.455 6.058C198.135 4.91333 198.599 3.66667 198.849 2.318L200.583 2.624C200.379 3.76867 200.039 4.82267 199.563 5.786L205.955 10.087L205.037 11.43L198.832 7.129ZM206.278 14.49V16.071H191.777V14.49H206.278Z" fill="white"/>
<defs>
<filter id="filter0_d_8_25" x="10.5" y="31.5" width="605.289" height="134.45" filterUnits="userSpaceOnUse" color-interpolation-filters="sRGB">
<feFlood flood-opacity="0" result="BackgroundImageFix"/>
<feColorMatrix in="SourceAlpha" type="matrix" values="0 0 0 0 0 0 0 0 0 0 0 0 0 0 0 0 0 0 127 0" result="hardAlpha"/>
<feOffset dx="5" dy="5"/>
<feComposite in2="hardAlpha" operator="out"/>
<feColorMatrix type="matrix" values="0 0 0 0 0.792157 0 0 0 0 0.631373 0 0 0 0 0.588235 0 0 0 1 0"/>
<feBlend mode="normal" in2="BackgroundImageFix" result="effect1_dropShadow_8_25"/>
<feBlend mode="normal" in="SourceGraphic" in2="effect1_dropShadow_8_25" result="shape"/>
</filter>
</defs>
</svg>
