<svg width="321" height="70" viewBox="0 0 321 70" fill="none" xmlns="http://www.w3.org/2000/svg">
<path d="M65.32 -4.76837e-06V68.32H51.8V38.4H42.76C42.1733 47.6267 40.04 54.5333 36.36 59.12C32.7333 63.6533 27.88 65.92 21.8 65.92C15.1867 65.92 9.98667 63.2267 6.2 57.84C2.46667 52.4 0.6 44.24 0.6 33.36C0.6 22.48 2.46667 14.3467 6.2 8.96C9.98667 3.52 15.1867 0.799999 21.8 0.799999C27.56 0.799999 32.2533 2.88 35.88 7.04C39.5067 11.1467 41.7467 17.3867 42.6 25.76H51.8V-4.76837e-06H65.32ZM21.8 53.52C26.9733 53.52 29.56 46.8 29.56 33.36C29.56 19.92 26.9733 13.2 21.8 13.2C16.5733 13.2 13.96 19.92 13.96 33.36C13.96 46.8 16.5733 53.52 21.8 53.52ZM131.553 68.32H118.033V-4.76837e-06H131.553V68.32ZM109.073 13.92H82.1931V52.8H96.7531C100.006 52.8 103.233 52.5333 106.433 52C109.686 51.4133 112.353 50.64 114.433 49.68V61.84C112.406 62.8533 109.686 63.6533 106.273 64.24C102.913 64.8267 99.5531 65.12 96.1931 65.12H68.5131V1.6H109.073V13.92ZM210.128 37.84H196.608V-4.76837e-06H210.128V37.84ZM188.608 18.48C188.608 22.16 187.675 25.3867 185.808 28.16C183.941 30.9333 181.328 33.0933 177.968 34.64C174.608 36.1333 170.741 36.88 166.368 36.88C161.995 36.88 158.128 36.1333 154.768 34.64C151.408 33.0933 148.795 30.9333 146.928 28.16C145.061 25.3867 144.128 22.16 144.128 18.48C144.128 14.8533 145.061 11.6533 146.928 8.88C148.795 6.05333 151.408 3.89333 154.768 2.4C158.128 0.853332 161.995 0.079999 166.368 0.079999C170.741 0.079999 174.608 0.853332 177.968 2.4C181.328 3.89333 183.941 6.05333 185.808 8.88C187.675 11.6533 188.608 14.8533 188.608 18.48ZM157.568 18.48C157.568 20.72 158.368 22.5067 159.968 23.84C161.568 25.1733 163.701 25.84 166.368 25.84C169.035 25.84 171.168 25.1733 172.768 23.84C174.368 22.5067 175.168 20.72 175.168 18.48C175.168 16.24 174.368 14.4533 172.768 13.12C171.168 11.7867 169.035 11.12 166.368 11.12C163.701 11.12 161.568 11.7867 159.968 13.12C158.368 14.4533 157.568 16.24 157.568 18.48ZM207.328 69.04L195.968 60C193.568 62.6667 190.768 64.72 187.568 66.16C184.421 67.6 181.088 68.32 177.568 68.32L167.168 60.08C164.715 62.7467 161.915 64.7733 158.768 66.16C155.675 67.6 152.421 68.32 149.008 68.32V56.08C151.141 56.08 153.141 55.3867 155.008 54C156.928 52.56 158.528 50.6133 159.808 48.16C161.088 45.6533 161.888 42.9067 162.208 39.92L175.248 42.08C174.875 45.0667 174.181 47.84 173.168 50.4L180.608 55.52C183.168 54.6133 185.381 52.7467 187.248 49.92C189.168 47.04 190.341 43.7067 190.768 39.92L203.808 42.08C203.381 45.12 202.715 47.8667 201.808 50.32L215.008 59.36L207.328 69.04ZM276.681 68.32H263.161V-4.76837e-06H276.681V68.32ZM227.561 52.8H241.881C245.135 52.8 248.361 52.5067 251.561 51.92C254.815 51.3333 257.481 50.5333 259.561 49.52V61.84C257.535 62.8533 254.921 63.6533 251.721 64.24C248.521 64.8267 245.241 65.12 241.881 65.12H213.641V1.2H227.561V52.8ZM291.794 45.6C291.794 41.6533 292.381 38.4267 293.554 35.92C294.781 33.4133 296.861 31.0667 299.794 28.88C302.408 26.8533 304.274 25.1733 305.394 23.84C306.514 22.4533 307.074 20.8533 307.074 19.04C307.074 17.0133 306.381 15.44 304.994 14.32C303.608 13.1467 301.661 12.56 299.154 12.56C296.594 12.56 294.568 13.3333 293.074 14.88C291.634 16.3733 290.914 18.2133 290.914 20.4H276.994C276.994 16.6133 277.928 13.2 279.794 10.16C281.714 7.06666 284.328 4.64 287.634 2.88C290.994 1.12 294.808 0.239997 299.074 0.239997C303.608 0.239997 307.501 1.04 310.754 2.64C314.008 4.24 316.488 6.48 318.194 9.36C319.901 12.1867 320.754 15.4133 320.754 19.04C320.754 24.64 318.061 29.52 312.674 33.68C309.741 35.9733 307.714 37.9733 306.594 39.68C305.528 41.3867 304.994 43.36 304.994 45.6H291.794ZM298.834 68.32C296.381 68.32 294.354 67.52 292.754 65.92C291.154 64.3733 290.354 62.3733 290.354 59.92C290.354 57.4667 291.154 55.44 292.754 53.84C294.354 52.24 296.381 51.44 298.834 51.44C301.288 51.44 303.314 52.24 304.914 53.84C306.514 55.44 307.314 57.4667 307.314 59.92C307.314 62.3733 306.514 64.3733 304.914 65.92C303.314 67.52 301.288 68.32 298.834 68.32Z" fill="#EE8E85"/>
</svg>
