<svg width="24" height="24" viewBox="0 0 24 24" fill="none" xmlns="http://www.w3.org/2000/svg">
<path d="M17.654 14.8243C18.714 13.1254 19.1718 11.1112 18.941 9.10895C18.6847 6.88682 17.599 4.84338 15.901 3.38744C14.203 1.9315 12.018 1.17046 9.78299 1.25659C7.54802 1.34272 5.428 2.26967 3.84706 3.85196C2.26612 5.43425 1.34086 7.55519 1.25634 9.79045C1.17183 12.0257 1.9343 14.2105 3.39123 15.9076C4.84817 17.6048 6.89214 18.6893 9.11422 18.944C11.1063 19.1723 13.1097 18.7187 14.8023 17.6687C14.9783 17.8686 15.1895 18.108 15.4007 18.3471C15.8939 18.9055 16.4237 19.5042 16.463 19.5446L16.4953 19.5759L19.3487 22.1773C19.7223 22.544 20.2251 22.7498 20.7491 22.75C21.2796 22.7502 21.7885 22.5396 22.1637 22.1646C22.5389 21.7895 22.7498 21.2808 22.75 20.7503C22.7502 20.2198 22.5397 19.711 22.1647 19.3357L22.1645 19.3355L17.654 14.8243ZM16.2506 10.1235C16.2506 10.928 16.0921 11.7246 15.7843 12.4678C15.4765 13.211 15.0254 13.8863 14.4566 14.4551C13.8879 15.0239 13.2127 15.4751 12.4696 15.783C11.7265 16.0908 10.9301 16.2492 10.1258 16.2492C9.32152 16.2492 8.52509 16.0908 7.78201 15.783C7.03893 15.4751 6.36375 15.0239 5.79501 14.4551C5.22627 13.8863 4.77511 13.211 4.46731 12.4678C4.1595 11.7246 4.00108 10.928 4.00108 10.1235C4.00108 8.49885 4.64638 6.94074 5.79501 5.79195C6.94363 4.64317 8.50147 3.99781 10.1258 3.99781C11.7502 3.99781 13.308 4.64317 14.4566 5.79195C15.6052 6.94074 16.2506 8.49885 16.2506 10.1235Z" stroke="black" stroke-width="1.5" stroke-linejoin="bevel"/>
</svg>
