<svg width="100" height="100" viewBox="0 0 100 100" fill="none" xmlns="http://www.w3.org/2000/svg">
<g clip-path="url(#clip0_279_30)">
<path d="M58.7812 6.5625C56.2 -2.1875 43.8 -2.1875 41.2187 6.5625L40.5937 8.6875C40.2081 9.99747 39.5341 11.2045 38.6212 12.2201C37.7083 13.2357 36.5797 14.034 35.3181 14.5566C34.0565 15.0793 32.6939 15.3129 31.3303 15.2404C29.9667 15.1678 28.6365 14.791 27.4375 14.1375L25.5 13.075C17.4812 8.7125 8.7125 17.4813 13.0812 25.4937L14.1375 27.4375C16.925 32.5625 14.2812 38.9437 8.6875 40.5937L6.5625 41.2187C-2.1875 43.8 -2.1875 56.2 6.5625 58.7812L8.6875 59.4063C9.99747 59.7919 11.2045 60.4659 12.2201 61.3788C13.2357 62.2917 14.034 63.4203 14.5566 64.6819C15.0793 65.9435 15.3129 67.3061 15.2404 68.6697C15.1678 70.0333 14.791 71.3635 14.1375 72.5625L13.075 74.5C8.7125 82.5188 17.4813 91.2875 25.4937 86.9187L27.4375 85.8625C28.6365 85.209 29.9667 84.8322 31.3303 84.7596C32.6939 84.6871 34.0565 84.9207 35.3181 85.4433C36.5797 85.966 37.7083 86.7643 38.6212 87.7799C39.5341 88.7955 40.2081 90.0025 40.5937 91.3125L41.2187 93.4375C43.8 102.187 56.2 102.187 58.7812 93.4375L59.4063 91.3125C59.7919 90.0025 60.4659 88.7955 61.3788 87.7799C62.2917 86.7643 63.4203 85.966 64.6819 85.4433C65.9435 84.9207 67.3061 84.6871 68.6697 84.7596C70.0333 84.8322 71.3635 85.209 72.5625 85.8625L74.5 86.925C82.5188 91.2875 91.2875 82.5187 86.9187 74.5062L85.8625 72.5625C85.209 71.3635 84.8322 70.0333 84.7596 68.6697C84.6871 67.3061 84.9207 65.9435 85.4433 64.6819C85.966 63.4203 86.7643 62.2917 87.7799 61.3788C88.7955 60.4659 90.0025 59.7919 91.3125 59.4063L93.4375 58.7812C102.187 56.2 102.187 43.8 93.4375 41.2187L91.3125 40.5937C90.0025 40.2081 88.7955 39.5341 87.7799 38.6212C86.7643 37.7083 85.966 36.5797 85.4433 35.3181C84.9207 34.0565 84.6871 32.6939 84.7596 31.3303C84.8322 29.9667 85.209 28.6365 85.8625 27.4375L86.925 25.5C91.2875 17.4812 82.5187 8.7125 74.5062 13.0812L72.5625 14.1375C71.3635 14.791 70.0333 15.1678 68.6697 15.2404C67.3061 15.3129 65.9435 15.0793 64.6819 14.5566C63.4203 14.034 62.2917 13.2357 61.3788 12.2201C60.4659 11.2045 59.7919 9.99747 59.4063 8.6875L58.7812 6.5625V6.5625ZM50 68.3125C45.1432 68.3125 40.4854 66.3832 37.0511 62.9489C33.6168 59.5146 31.6875 54.8568 31.6875 50C31.6875 45.1432 33.6168 40.4854 37.0511 37.0511C40.4854 33.6168 45.1432 31.6875 50 31.6875C54.8551 31.6875 59.5114 33.6162 62.9445 37.0493C66.3776 40.4824 68.3062 45.1386 68.3062 49.9938C68.3062 54.8489 66.3776 59.5051 62.9445 62.9382C59.5114 66.3713 54.8551 68.3 50 68.3V68.3125Z" fill="black"/>
</g>
<defs>
<clipPath id="clip0_279_30">
<rect width="100" height="100" fill="white"/>
</clipPath>
</defs>
</svg>
