<svg width="20" height="20" viewBox="0 0 20 20" fill="none" xmlns="http://www.w3.org/2000/svg">
<path fill-rule="evenodd" clip-rule="evenodd" d="M14.9013 2.61625L14.5125 2.8275C14.2727 2.9582 14.0067 3.03357 13.7339 3.04807C13.4612 3.06258 13.1887 3.01585 12.9364 2.91133C12.6841 2.80681 12.4583 2.64713 12.2758 2.44402C12.0932 2.2409 11.9584 1.99949 11.8813 1.7375L11.7563 1.3125C11.24 -0.4375 8.76 -0.4375 8.24375 1.3125L8.11875 1.7375C8.04162 1.99949 7.90682 2.2409 7.72424 2.44402C7.54166 2.64713 7.31594 2.80681 7.06362 2.91133C6.8113 3.01585 6.53878 3.06258 6.26606 3.04807C5.99333 3.03357 5.72731 2.9582 5.4875 2.8275L5.1 2.615C3.49625 1.7425 1.7425 3.49625 2.61625 5.09875L2.8275 5.4875C3.385 6.5125 2.85625 7.78875 1.7375 8.11875L1.3125 8.24375C-0.4375 8.76 -0.4375 11.24 1.3125 11.7563L1.7375 11.8813C1.99949 11.9584 2.2409 12.0932 2.44402 12.2758C2.64713 12.4583 2.80681 12.6841 2.91133 12.9364C3.01585 13.1887 3.06258 13.4612 3.04807 13.7339C3.03357 14.0067 2.9582 14.2727 2.8275 14.5125L2.615 14.9C1.7425 16.5038 3.49625 18.2575 5.09875 17.3838L5.4875 17.1725C5.72731 17.0418 5.99333 16.9664 6.26606 16.9519C6.53878 16.9374 6.8113 16.9841 7.06362 17.0887C7.31594 17.1932 7.54166 17.3529 7.72424 17.556C7.90682 17.7591 8.04162 18.0005 8.11875 18.2625L8.24375 18.6875C8.76 20.4375 11.24 20.4375 11.7563 18.6875L11.8813 18.2625C11.9584 18.0005 12.0932 17.7591 12.2758 17.556C12.4583 17.3529 12.6841 17.1932 12.9364 17.0887C13.1887 16.9841 13.4612 16.9374 13.7339 16.9519C14.0067 16.9664 14.2727 17.0418 14.5125 17.1725L14.9 17.385C16.5038 18.2575 18.2575 16.5038 17.3838 14.9013L17.1725 14.5125C17.0418 14.2727 16.9664 14.0067 16.9519 13.7339C16.9374 13.4612 16.9841 13.1887 17.0887 12.9364C17.1932 12.6841 17.3529 12.4583 17.556 12.2758C17.7591 12.0932 18.0005 11.9584 18.2625 11.8813L18.6875 11.7563C20.4375 11.24 20.4375 8.76 18.6875 8.24375L18.2625 8.11875C18.0005 8.04162 17.7591 7.90682 17.556 7.72424C17.3529 7.54166 17.1932 7.31594 17.0887 7.06362C16.9841 6.8113 16.9374 6.53878 16.9519 6.26606C16.9664 5.99333 17.0418 5.72731 17.1725 5.4875L17.385 5.1C18.2575 3.49625 16.5038 1.7425 14.9013 2.61625ZM16.0674 4.38316C16.0677 4.38263 16.068 4.3821 16.0682 4.38157C16.1225 4.28114 16.1209 4.21655 16.1134 4.17449C16.1037 4.11952 16.072 4.05115 16.0106 3.98972C15.9492 3.9283 15.881 3.89686 15.8266 3.88722C15.7848 3.87983 15.7203 3.87816 15.6193 3.93321L15.6175 3.93423L15.2303 4.14459C15.23 4.14476 15.2297 4.14494 15.2294 4.14511C14.7933 4.38262 14.3095 4.51958 13.8136 4.54595C13.3173 4.57235 12.8215 4.48733 12.3623 4.29713C11.9032 4.10693 11.4924 3.81637 11.1602 3.44677C10.828 3.07717 10.5827 2.63789 10.4423 2.16115L10.3175 1.73692C10.2851 1.62679 10.2382 1.58226 10.2033 1.55783C10.1577 1.526 10.087 1.5 10 1.5C9.91297 1.5 9.84231 1.526 9.79674 1.55783C9.76177 1.58226 9.71494 1.62679 9.68246 1.73692L9.5578 2.16075C9.41744 2.63749 9.17203 3.07717 8.8398 3.44677C8.50757 3.81638 8.09683 4.10693 7.63769 4.29713C7.17855 4.48733 6.68266 4.57235 6.18639 4.54595C5.69012 4.51956 5.20604 4.38242 4.76967 4.14459L4.76625 4.14272L4.38164 3.93181C4.28117 3.87751 4.21656 3.87912 4.17449 3.88659C4.11952 3.89634 4.05115 3.92798 3.98972 3.98941C3.9283 4.05084 3.89686 4.11899 3.88722 4.17345C3.87983 4.21518 3.87816 4.27971 3.93321 4.38069L3.93423 4.38255L4.1452 4.7708C4.14529 4.77097 4.14511 4.77063 4.1452 4.7708C5.15836 6.63429 4.19701 8.95716 2.16188 9.55747L1.73692 9.68246C1.62679 9.71494 1.58226 9.76177 1.55783 9.79674C1.526 9.84231 1.5 9.91297 1.5 10C1.5 10.087 1.526 10.1577 1.55783 10.2033C1.58226 10.2382 1.62679 10.2851 1.73692 10.3175L2.16075 10.4422C2.63749 10.5826 3.07717 10.828 3.44677 11.1602C3.81638 11.4924 4.10693 11.9032 4.29713 12.3623C4.48733 12.8215 4.57235 13.3173 4.54595 13.8136C4.51956 14.3099 4.38242 14.794 4.14459 15.2303L4.14272 15.2338L3.93263 15.6168C3.93236 15.6173 3.93208 15.6178 3.93181 15.6183C3.87751 15.7188 3.87912 15.7834 3.88659 15.8255C3.89634 15.8805 3.92798 15.9489 3.98941 16.0103C4.05084 16.0717 4.11899 16.1031 4.17345 16.1128C4.21518 16.1202 4.27971 16.1218 4.38069 16.0668L4.38255 16.0658L4.76967 15.8554M16.0674 4.38316L15.8573 4.76624L15.8554 4.76967C15.6176 5.20605 15.4804 5.69012 15.454 6.18639C15.4277 6.68267 15.5127 7.17856 15.7029 7.63769C15.8931 8.09682 16.1836 8.50757 16.5532 8.8398C16.9228 9.17203 17.3621 9.41732 17.8389 9.55768L18.2631 9.68246C18.263 9.68242 18.2632 9.68249 18.2631 9.68246C18.373 9.71494 18.4178 9.7618 18.4422 9.79674C18.474 9.84231 18.5 9.91297 18.5 10C18.5 10.087 18.474 10.1577 18.4422 10.2033C18.4178 10.2382 18.3733 10.2849 18.2635 10.3174C18.2637 10.3174 18.2634 10.3175 18.2635 10.3174L17.8393 10.4422C17.3625 10.5826 16.9228 10.828 16.5532 11.1602C16.1836 11.4924 15.8931 11.9032 15.7029 12.3623C15.5127 12.8214 15.4277 13.3173 15.454 13.8136C15.4804 14.3095 15.6174 14.7933 15.8549 15.2294C15.8551 15.2297 15.8553 15.23 15.8554 15.2303L16.0658 15.6175L16.0668 15.6193C16.1218 15.7203 16.1202 15.7848 16.1128 15.8266C16.1031 15.881 16.0717 15.9492 16.0103 16.0106C15.9489 16.072 15.8805 16.1037 15.8255 16.1134C15.7835 16.1209 15.7189 16.1225 15.6185 16.0683C15.618 16.068 15.6174 16.0677 15.6168 16.0674L15.2338 15.8573L15.2303 15.8554C14.794 15.6176 14.3099 15.4804 13.8136 15.454C13.3173 15.4277 12.8214 15.5127 12.3623 15.7029C11.9032 15.8931 11.4924 16.1836 11.1602 16.5532C10.828 16.9228 10.5827 17.3621 10.4423 17.8389L10.3175 18.2631C10.3176 18.2629 10.3175 18.2632 10.3175 18.2631C10.2851 18.3729 10.2382 18.4178 10.2033 18.4422C10.1577 18.474 10.087 18.5 10 18.5C9.91297 18.5 9.84231 18.474 9.79674 18.4422C9.76181 18.4178 9.71507 18.3733 9.68258 18.2635C9.68263 18.2637 9.68254 18.2634 9.68258 18.2635L9.5578 17.8393C9.41744 17.3625 9.17204 16.9228 8.8398 16.5532C8.50757 16.1836 8.09682 15.8931 7.63769 15.7029C7.17856 15.5127 6.68267 15.4277 6.18639 15.454C5.69074 15.4804 5.20725 15.6172 4.7713 15.8545M11.5 15.1625H10C8.63082 15.1625 7.31772 14.6186 6.34956 13.6504C5.38141 12.6823 4.8375 11.3692 4.8375 10C4.8375 8.63082 5.38141 7.31772 6.34956 6.34956C7.31772 5.38141 8.63082 4.8375 10 4.8375C11.3689 4.8375 12.6816 5.38127 13.6496 6.3492C14.6175 7.31712 15.1613 8.6299 15.1613 9.99875C15.1613 11.3676 14.6175 12.6804 13.6496 13.6483C13.0443 14.2535 12.3043 14.6929 11.5 14.9372V15.1625ZM10 13.66C10.971 13.66 11.9023 13.2743 12.5889 12.5876C13.2755 11.901 13.6613 10.9698 13.6613 9.99875C13.6613 9.02773 13.2755 8.09647 12.5889 7.40986C11.9023 6.72324 10.971 6.3375 10 6.3375C9.02865 6.3375 8.09707 6.72337 7.41022 7.41022C6.72337 8.09707 6.3375 9.02865 6.3375 10C6.3375 10.9714 6.72337 11.9029 7.41022 12.5898C7.72789 12.9075 8.09791 13.1607 8.5 13.3412C8.92682 13.5329 9.38977 13.6425 9.86461 13.66C9.90964 13.6617 9.95478 13.6625 10 13.6625V13.66Z" fill="black"/>
</svg>
