<svg width="11" height="11" viewBox="0 0 11 11" fill="none" xmlns="http://www.w3.org/2000/svg">
<path d="M4.95428 8.73439L1.47501 3.51864C1.0644 2.90496 1.39811 1.94116 2.02127 1.94116H8.97981C9.11927 1.94101 9.25582 1.99357 9.37309 2.09257C9.49035 2.19157 9.58338 2.33281 9.64102 2.49936C9.69866 2.66592 9.71848 2.85073 9.69809 3.03167C9.6777 3.21262 9.61798 3.38202 9.52607 3.51959L6.04681 8.73344C5.97872 8.83563 5.89474 8.91754 5.80052 8.97366C5.7063 9.02978 5.60402 9.05881 5.50054 9.05881C5.39706 9.05881 5.29478 9.02978 5.20056 8.97366C5.10634 8.91754 5.02237 8.83563 4.95428 8.73344V8.73439Z" fill="black"/>
</svg>
