<svg width="60" height="60" viewBox="0 0 60 60" fill="none" xmlns="http://www.w3.org/2000/svg">
<circle cx="30" cy="30" r="30" fill="white"/>
<path fill-rule="evenodd" clip-rule="evenodd" d="M22.1875 24.645C21.4775 24.645 20.9025 24.0525 21.0125 23.3525C21.7 19.1 24.94 16 30.5625 16C36.1875 16 39.98 19.4 39.98 24.0375C39.98 27.3975 38.3175 29.7575 35.505 31.47C32.755 33.1175 31.97 34.265 31.97 36.495V36.57C31.97 36.9015 31.8383 37.2195 31.6039 37.4539C31.3695 37.6883 31.0515 37.82 30.72 37.82H28.795C28.4656 37.82 28.1496 37.69 27.9155 37.4583C27.6815 37.2266 27.5483 36.9118 27.545 36.5825L27.5375 36.0825C27.43 33.03 28.73 31.08 31.65 29.3025C34.225 27.7225 35.1425 26.465 35.1425 24.2325C35.1425 21.785 33.2475 19.9875 30.3275 19.9875C27.805 19.9875 26.0525 21.31 25.4825 23.4925C25.3175 24.1275 24.7875 24.645 24.1325 24.645H22.19H22.1875ZM29.74 46C31.295 46 32.4775 44.815 32.4775 43.275C32.4775 41.73 31.295 40.545 29.74 40.545C28.225 40.545 27.0225 41.73 27.0225 43.2725C27.0225 44.815 28.225 46 29.74 46Z" fill="black"/>
</svg>
