<svg width="101" height="100" viewBox="0 0 101 100" fill="none" xmlns="http://www.w3.org/2000/svg">
<path d="M73.3931 64.6384C79.445 56.3802 82.1555 46.1415 80.9825 35.9706C79.8095 25.7997 74.8394 16.4468 67.0666 9.78298C59.2938 3.11918 49.2915 -0.364057 39.0608 0.0301505C28.8301 0.424358 19.1255 4.66693 11.8885 11.9091C4.65156 19.1513 0.415927 28.8589 0.0290408 39.0899C-0.357846 49.3209 3.13254 59.3207 9.80191 67.0887C16.4713 74.8567 25.8278 79.8201 35.9995 80.9858C46.1712 82.1516 56.408 79.4337 64.6619 73.3759H64.6556C64.8431 73.6259 65.0431 73.8634 65.2681 74.0947L89.3306 98.1572C90.5025 99.3299 92.0923 99.9891 93.7503 99.9897C95.4082 99.9903 96.9985 99.3322 98.1712 98.1603C99.344 96.9884 100.003 95.3986 100.004 93.7406C100.004 92.0827 99.3463 90.4924 98.1744 89.3197L74.1119 65.2572C73.8884 65.031 73.6481 64.8221 73.3931 64.6322V64.6384ZM75.0056 40.6134C75.0056 45.1276 74.1165 49.5976 72.389 53.7682C70.6615 57.9387 68.1294 61.7282 64.9374 64.9202C61.7454 68.1122 57.9559 70.6443 53.7854 72.3718C49.6148 74.0993 45.1448 74.9884 40.6306 74.9884C36.1164 74.9884 31.6464 74.0993 27.4759 72.3718C23.3053 70.6443 19.5158 68.1122 16.3238 64.9202C13.1318 61.7282 10.5998 57.9387 8.87225 53.7682C7.14475 49.5976 6.25561 45.1276 6.25561 40.6134C6.25561 31.4966 9.87725 22.7532 16.3238 16.3066C22.7704 9.86006 31.5138 6.23842 40.6306 6.23842C49.7474 6.23842 58.4908 9.86006 64.9374 16.3066C71.384 22.7532 75.0056 31.4966 75.0056 40.6134V40.6134Z" fill="black"/>
</svg>
