<svg width="210" height="78" viewBox="0 0 210 78" fill="none" xmlns="http://www.w3.org/2000/svg">
<g filter="url(#filter0_d_5_4)">
<rect width="207" height="73" rx="36.5" fill="#EE8E85"/>
<path d="M87.52 45.8V51.96H52.96V45.8H66.8V41.96H54.88V28.04H78.96V25.72H54.8V19.8H85.64V33.68H61.56V36.04H86.04V41.96H73.68V45.8H87.52ZM118.917 43.44H111.757V26.12H88.0366V19.8H118.917V43.44ZM120.797 51.96H86.2366V45.6H120.797V51.96ZM152.553 44.28H145.793V19H152.553V44.28ZM130.633 19.04C132.846 19.04 134.793 19.4667 136.473 20.32C138.18 21.1733 139.5 22.3733 140.433 23.92C141.393 25.4667 141.873 27.2533 141.873 29.28C141.873 31.3333 141.393 33.1333 140.433 34.68C139.5 36.2267 138.18 37.4267 136.473 38.28C134.793 39.1067 132.846 39.52 130.633 39.52C128.42 39.52 126.46 39.1067 124.753 38.28C123.073 37.4267 121.753 36.2267 120.793 34.68C119.86 33.1333 119.393 31.3333 119.393 29.28C119.393 27.2533 119.86 25.4667 120.793 23.92C121.753 22.3733 123.073 21.1733 124.753 20.32C126.46 19.4667 128.42 19.04 130.633 19.04ZM130.633 24.68C129.3 24.68 128.206 25.0933 127.353 25.92C126.526 26.72 126.113 27.84 126.113 29.28C126.113 30.72 126.526 31.8533 127.353 32.68C128.206 33.48 129.3 33.88 130.633 33.88C131.966 33.88 133.046 33.48 133.873 32.68C134.726 31.8533 135.153 30.72 135.153 29.28C135.153 27.84 134.726 26.72 133.873 25.92C133.046 25.0933 131.966 24.68 130.633 24.68ZM129.273 47.08H153.033V53.16H122.393V41.2H129.273V47.08Z" fill="white"/>
</g>
<defs>
<filter id="filter0_d_5_4" x="0" y="0" width="210" height="78" filterUnits="userSpaceOnUse" color-interpolation-filters="sRGB">
<feFlood flood-opacity="0" result="BackgroundImageFix"/>
<feColorMatrix in="SourceAlpha" type="matrix" values="0 0 0 0 0 0 0 0 0 0 0 0 0 0 0 0 0 0 127 0" result="hardAlpha"/>
<feOffset dx="3" dy="5"/>
<feComposite in2="hardAlpha" operator="out"/>
<feColorMatrix type="matrix" values="0 0 0 0 0 0 0 0 0 0 0 0 0 0 0 0 0 0 0.18 0"/>
<feBlend mode="normal" in2="BackgroundImageFix" result="effect1_dropShadow_5_4"/>
<feBlend mode="normal" in="SourceGraphic" in2="effect1_dropShadow_5_4" result="shape"/>
</filter>
</defs>
</svg>
